<mxfile host="app.diagrams.net" modified="2023-06-08T10:48:48.702Z" agent="Mozilla/5.0 (Windows NT 10.0; Win64; x64; rv:102.0) Gecko/20100101 Firefox/102.0" etag="ToZy8MDzOcE6nOzj14Q4" version="21.3.7" type="github">
  <diagram name="Page-1" id="eeQrnODhmi9UHMhf5WE-">
    <mxGraphModel dx="1762" dy="503" grid="1" gridSize="10" guides="1" tooltips="1" connect="1" arrows="1" fold="1" page="1" pageScale="1" pageWidth="850" pageHeight="1100" math="0" shadow="0">
      <root>
        <mxCell id="0" />
        <mxCell id="1" parent="0" />
        <mxCell id="sDgR5sVbnxLiPeDA74GP-60" value="Coordination de la réponse" style="points=[[0.25,0,0],[0.5,0,0],[0.75,0,0],[1,0.25,0],[1,0.5,0],[1,0.75,0],[0.75,1,0],[0.5,1,0],[0.25,1,0],[0,0.75,0],[0,0.5,0],[0,0.25,0]];shape=mxgraph.bpmn.task;whiteSpace=wrap;rectStyle=rounded;size=10;html=1;container=1;expand=0;collapsible=0;taskMarker=abstract;" parent="1" vertex="1">
          <mxGeometry x="207" y="320" width="90" height="80" as="geometry" />
        </mxCell>
        <mxCell id="sDgR5sVbnxLiPeDA74GP-70" style="edgeStyle=orthogonalEdgeStyle;rounded=0;orthogonalLoop=1;jettySize=auto;html=1;exitX=1;exitY=0.5;exitDx=0;exitDy=0;exitPerimeter=0;entryX=0;entryY=0.5;entryDx=0;entryDy=0;entryPerimeter=0;" parent="1" source="sDgR5sVbnxLiPeDA74GP-11" target="sDgR5sVbnxLiPeDA74GP-69" edge="1">
          <mxGeometry relative="1" as="geometry" />
        </mxCell>
        <mxCell id="sDgR5sVbnxLiPeDA74GP-11" value="" style="points=[[0.25,0.25,0],[0.5,0,0],[0.75,0.25,0],[1,0.5,0],[0.75,0.75,0],[0.5,1,0],[0.25,0.75,0],[0,0.5,0]];shape=mxgraph.bpmn.gateway2;html=1;verticalLabelPosition=bottom;labelBackgroundColor=#ffffff;verticalAlign=top;align=center;perimeter=rhombusPerimeter;outlineConnect=0;outline=none;symbol=none;gwType=exclusive;" parent="1" vertex="1">
          <mxGeometry x="433" y="335" width="50" height="50" as="geometry" />
        </mxCell>
        <mxCell id="sDgR5sVbnxLiPeDA74GP-35" style="edgeStyle=orthogonalEdgeStyle;rounded=0;orthogonalLoop=1;jettySize=auto;html=1;exitX=0.5;exitY=1;exitDx=0;exitDy=0;exitPerimeter=0;entryX=0.5;entryY=1;entryDx=0;entryDy=0;entryPerimeter=0;" parent="1" source="sDgR5sVbnxLiPeDA74GP-12" target="sDgR5sVbnxLiPeDA74GP-11" edge="1">
          <mxGeometry relative="1" as="geometry">
            <Array as="points">
              <mxPoint x="135" y="430" />
              <mxPoint x="457" y="430" />
            </Array>
          </mxGeometry>
        </mxCell>
        <mxCell id="tp5j9MF-avFBX9Z3LvWL-1" style="edgeStyle=orthogonalEdgeStyle;rounded=0;orthogonalLoop=1;jettySize=auto;html=1;exitX=1;exitY=0.5;exitDx=0;exitDy=0;exitPerimeter=0;entryX=0;entryY=0.5;entryDx=0;entryDy=0;entryPerimeter=0;" edge="1" parent="1" source="sDgR5sVbnxLiPeDA74GP-12" target="sDgR5sVbnxLiPeDA74GP-60">
          <mxGeometry relative="1" as="geometry" />
        </mxCell>
        <mxCell id="sDgR5sVbnxLiPeDA74GP-12" value="" style="points=[[0.25,0.25,0],[0.5,0,0],[0.75,0.25,0],[1,0.5,0],[0.75,0.75,0],[0.5,1,0],[0.25,0.75,0],[0,0.5,0]];shape=mxgraph.bpmn.gateway2;html=1;verticalLabelPosition=bottom;labelBackgroundColor=#ffffff;verticalAlign=top;align=center;perimeter=rhombusPerimeter;outlineConnect=0;outline=none;symbol=none;gwType=exclusive;" parent="1" vertex="1">
          <mxGeometry x="110" y="335" width="50" height="50" as="geometry" />
        </mxCell>
        <mxCell id="sDgR5sVbnxLiPeDA74GP-28" style="edgeStyle=orthogonalEdgeStyle;rounded=0;orthogonalLoop=1;jettySize=auto;html=1;exitX=1;exitY=0.5;exitDx=0;exitDy=0;exitPerimeter=0;entryX=0;entryY=0.5;entryDx=0;entryDy=0;entryPerimeter=0;" parent="1" source="sDgR5sVbnxLiPeDA74GP-60" target="sDgR5sVbnxLiPeDA74GP-18" edge="1">
          <mxGeometry relative="1" as="geometry">
            <mxPoint x="685" y="359.5" as="sourcePoint" />
          </mxGeometry>
        </mxCell>
        <mxCell id="sDgR5sVbnxLiPeDA74GP-68" style="edgeStyle=orthogonalEdgeStyle;rounded=0;orthogonalLoop=1;jettySize=auto;html=1;exitX=1;exitY=0.5;exitDx=0;exitDy=0;exitPerimeter=0;entryX=0;entryY=0.5;entryDx=0;entryDy=0;entryPerimeter=0;" parent="1" source="sDgR5sVbnxLiPeDA74GP-18" target="sDgR5sVbnxLiPeDA74GP-11" edge="1">
          <mxGeometry relative="1" as="geometry" />
        </mxCell>
        <mxCell id="sDgR5sVbnxLiPeDA74GP-18" value="Résolution de l&#39;incident" style="points=[[0.25,0,0],[0.5,0,0],[0.75,0,0],[1,0.25,0],[1,0.5,0],[1,0.75,0],[0.75,1,0],[0.5,1,0],[0.25,1,0],[0,0.75,0],[0,0.5,0],[0,0.25,0]];shape=mxgraph.bpmn.task;whiteSpace=wrap;rectStyle=rounded;size=10;html=1;container=0;expand=0;collapsible=0;taskMarker=abstract;isLoopStandard=1;" parent="1" vertex="1">
          <mxGeometry x="319" y="319.5" width="90" height="80" as="geometry" />
        </mxCell>
        <mxCell id="sDgR5sVbnxLiPeDA74GP-23" style="edgeStyle=orthogonalEdgeStyle;rounded=0;orthogonalLoop=1;jettySize=auto;html=1;exitX=0.5;exitY=1;exitDx=0;exitDy=0;exitPerimeter=0;" parent="1" source="sDgR5sVbnxLiPeDA74GP-18" target="sDgR5sVbnxLiPeDA74GP-18" edge="1">
          <mxGeometry relative="1" as="geometry" />
        </mxCell>
        <mxCell id="sDgR5sVbnxLiPeDA74GP-58" style="edgeStyle=orthogonalEdgeStyle;rounded=0;orthogonalLoop=1;jettySize=auto;html=1;exitX=1;exitY=0.5;exitDx=0;exitDy=0;exitPerimeter=0;entryX=0;entryY=0.5;entryDx=0;entryDy=0;entryPerimeter=0;" parent="1" source="sDgR5sVbnxLiPeDA74GP-31" target="sDgR5sVbnxLiPeDA74GP-48" edge="1">
          <mxGeometry relative="1" as="geometry" />
        </mxCell>
        <mxCell id="sDgR5sVbnxLiPeDA74GP-31" value="Incident détecté" style="points=[[0.145,0.145,0],[0.5,0,0],[0.855,0.145,0],[1,0.5,0],[0.855,0.855,0],[0.5,1,0],[0.145,0.855,0],[0,0.5,0]];shape=mxgraph.bpmn.event;html=1;verticalLabelPosition=bottom;labelBackgroundColor=#ffffff;verticalAlign=top;align=center;perimeter=ellipsePerimeter;outlineConnect=0;aspect=fixed;outline=standard;symbol=general;" parent="1" vertex="1">
          <mxGeometry x="-360" y="335" width="50" height="50" as="geometry" />
        </mxCell>
        <mxCell id="sDgR5sVbnxLiPeDA74GP-39" value="Incident avéré" style="text;html=1;strokeColor=none;fillColor=none;align=center;verticalAlign=middle;whiteSpace=wrap;rounded=0;" parent="1" vertex="1">
          <mxGeometry x="152" y="360" width="60" height="30" as="geometry" />
        </mxCell>
        <mxCell id="sDgR5sVbnxLiPeDA74GP-40" value="Faux positif" style="text;html=1;strokeColor=none;fillColor=none;align=center;verticalAlign=middle;whiteSpace=wrap;rounded=0;" parent="1" vertex="1">
          <mxGeometry x="84" y="408" width="60" height="30" as="geometry" />
        </mxCell>
        <mxCell id="sDgR5sVbnxLiPeDA74GP-41" value="" style="group" parent="1" vertex="1" connectable="0">
          <mxGeometry x="355" y="270.005" width="115" height="38.75" as="geometry" />
        </mxCell>
        <mxCell id="sDgR5sVbnxLiPeDA74GP-33" value="" style="shape=partialRectangle;whiteSpace=wrap;html=1;bottom=1;right=1;left=1;top=0;fillColor=none;routingCenterX=-0.5;rotation=90;" parent="sDgR5sVbnxLiPeDA74GP-41" vertex="1">
          <mxGeometry x="-10.620000000000005" y="10.625" width="38.75" height="17.5" as="geometry" />
        </mxCell>
        <mxCell id="sDgR5sVbnxLiPeDA74GP-34" value="Jusqu&#39;à éradication de la menace" style="text;html=1;strokeColor=none;fillColor=none;align=center;verticalAlign=middle;whiteSpace=wrap;rounded=0;" parent="sDgR5sVbnxLiPeDA74GP-41" vertex="1">
          <mxGeometry y="4.375" width="115" height="30" as="geometry" />
        </mxCell>
        <mxCell id="sDgR5sVbnxLiPeDA74GP-57" style="edgeStyle=orthogonalEdgeStyle;rounded=0;orthogonalLoop=1;jettySize=auto;html=1;exitX=1;exitY=0.5;exitDx=0;exitDy=0;exitPerimeter=0;entryX=0;entryY=0.5;entryDx=0;entryDy=0;entryPerimeter=0;" parent="1" source="sDgR5sVbnxLiPeDA74GP-48" target="sDgR5sVbnxLiPeDA74GP-12" edge="1">
          <mxGeometry relative="1" as="geometry" />
        </mxCell>
        <mxCell id="sDgR5sVbnxLiPeDA74GP-48" value="" style="points=[[0.25,0,0],[0.5,0,0],[0.75,0,0],[1,0.25,0],[1,0.5,0],[1,0.75,0],[0.75,1,0],[0.5,1,0],[0.25,1,0],[0,0.75,0],[0,0.5,0],[0,0.25,0]];shape=mxgraph.bpmn.task;whiteSpace=wrap;rectStyle=rounded;size=10;html=1;container=1;expand=0;collapsible=0;taskMarker=abstract;" parent="1" vertex="1">
          <mxGeometry x="-270" y="294.32" width="360" height="131.37" as="geometry" />
        </mxCell>
        <mxCell id="sDgR5sVbnxLiPeDA74GP-51" value="" style="points=[[0.145,0.145,0],[0.5,0,0],[0.855,0.145,0],[1,0.5,0],[0.855,0.855,0],[0.5,1,0],[0.145,0.855,0],[0,0.5,0]];shape=mxgraph.bpmn.event;html=1;verticalLabelPosition=bottom;labelBackgroundColor=#ffffff;verticalAlign=top;align=center;perimeter=ellipsePerimeter;outlineConnect=0;aspect=fixed;outline=standard;symbol=general;" parent="sDgR5sVbnxLiPeDA74GP-48" vertex="1">
          <mxGeometry x="10.285714285714285" y="40.18000000000001" width="50" height="50" as="geometry" />
        </mxCell>
        <mxCell id="sDgR5sVbnxLiPeDA74GP-52" value="" style="points=[[0.145,0.145,0],[0.5,0,0],[0.855,0.145,0],[1,0.5,0],[0.855,0.855,0],[0.5,1,0],[0.145,0.855,0],[0,0.5,0]];shape=mxgraph.bpmn.event;html=1;verticalLabelPosition=bottom;labelBackgroundColor=#ffffff;verticalAlign=top;align=center;perimeter=ellipsePerimeter;outlineConnect=0;aspect=fixed;outline=end;symbol=terminate2;" parent="sDgR5sVbnxLiPeDA74GP-48" vertex="1">
          <mxGeometry x="300.00142857142856" y="40.68000000000001" width="50" height="50" as="geometry" />
        </mxCell>
        <mxCell id="sDgR5sVbnxLiPeDA74GP-59" value="Tri des incidents" style="text;html=1;strokeColor=none;fillColor=none;align=center;verticalAlign=middle;whiteSpace=wrap;rounded=0;" parent="sDgR5sVbnxLiPeDA74GP-48" vertex="1">
          <mxGeometry x="120" y="-5" width="120" height="30" as="geometry" />
        </mxCell>
        <mxCell id="sDgR5sVbnxLiPeDA74GP-55" style="edgeStyle=orthogonalEdgeStyle;rounded=0;orthogonalLoop=1;jettySize=auto;html=1;exitX=1;exitY=0.5;exitDx=0;exitDy=0;exitPerimeter=0;entryX=0;entryY=0.5;entryDx=0;entryDy=0;entryPerimeter=0;" parent="1" source="sDgR5sVbnxLiPeDA74GP-9" target="sDgR5sVbnxLiPeDA74GP-52" edge="1">
          <mxGeometry relative="1" as="geometry" />
        </mxCell>
        <mxCell id="sDgR5sVbnxLiPeDA74GP-9" value="Interprétation du rapport d&#39;incident" style="points=[[0.25,0,0],[0.5,0,0],[0.75,0,0],[1,0.25,0],[1,0.5,0],[1,0.75,0],[0.75,1,0],[0.5,1,0],[0.25,1,0],[0,0.75,0],[0,0.5,0],[0,0.25,0]];shape=mxgraph.bpmn.task;whiteSpace=wrap;rectStyle=rounded;size=10;html=1;container=1;expand=0;collapsible=0;taskMarker=abstract;" parent="1" vertex="1">
          <mxGeometry x="-80" y="319.5" width="90" height="80" as="geometry" />
        </mxCell>
        <mxCell id="sDgR5sVbnxLiPeDA74GP-54" style="edgeStyle=orthogonalEdgeStyle;rounded=0;orthogonalLoop=1;jettySize=auto;html=1;exitX=1;exitY=0.5;exitDx=0;exitDy=0;exitPerimeter=0;entryX=0;entryY=0.5;entryDx=0;entryDy=0;entryPerimeter=0;" parent="1" source="sDgR5sVbnxLiPeDA74GP-8" target="sDgR5sVbnxLiPeDA74GP-9" edge="1">
          <mxGeometry relative="1" as="geometry" />
        </mxCell>
        <mxCell id="sDgR5sVbnxLiPeDA74GP-8" value="Réception du rapport d&#39;incident" style="points=[[0.25,0,0],[0.5,0,0],[0.75,0,0],[1,0.25,0],[1,0.5,0],[1,0.75,0],[0.75,1,0],[0.5,1,0],[0.25,1,0],[0,0.75,0],[0,0.5,0],[0,0.25,0]];shape=mxgraph.bpmn.task;whiteSpace=wrap;rectStyle=rounded;size=10;html=1;container=1;expand=0;collapsible=0;taskMarker=abstract;" parent="1" vertex="1">
          <mxGeometry x="-190" y="319.5" width="90" height="80" as="geometry" />
        </mxCell>
        <mxCell id="sDgR5sVbnxLiPeDA74GP-16" style="edgeStyle=orthogonalEdgeStyle;rounded=0;orthogonalLoop=1;jettySize=auto;html=1;exitX=1;exitY=0.5;exitDx=0;exitDy=0;exitPerimeter=0;entryX=0;entryY=0.5;entryDx=0;entryDy=0;entryPerimeter=0;" parent="1" source="sDgR5sVbnxLiPeDA74GP-8" target="sDgR5sVbnxLiPeDA74GP-9" edge="1">
          <mxGeometry relative="1" as="geometry" />
        </mxCell>
        <mxCell id="sDgR5sVbnxLiPeDA74GP-53" style="edgeStyle=orthogonalEdgeStyle;rounded=0;orthogonalLoop=1;jettySize=auto;html=1;exitX=1;exitY=0.5;exitDx=0;exitDy=0;exitPerimeter=0;entryX=0;entryY=0.5;entryDx=0;entryDy=0;entryPerimeter=0;" parent="1" source="sDgR5sVbnxLiPeDA74GP-51" target="sDgR5sVbnxLiPeDA74GP-8" edge="1">
          <mxGeometry relative="1" as="geometry" />
        </mxCell>
        <mxCell id="sDgR5sVbnxLiPeDA74GP-69" value="" style="points=[[0.145,0.145,0],[0.5,0,0],[0.855,0.145,0],[1,0.5,0],[0.855,0.855,0],[0.5,1,0],[0.145,0.855,0],[0,0.5,0]];shape=mxgraph.bpmn.event;html=1;verticalLabelPosition=bottom;labelBackgroundColor=#ffffff;verticalAlign=top;align=center;perimeter=ellipsePerimeter;outlineConnect=0;aspect=fixed;outline=end;symbol=terminate2;" parent="1" vertex="1">
          <mxGeometry x="525" y="334.5" width="50" height="50" as="geometry" />
        </mxCell>
        <mxCell id="sDgR5sVbnxLiPeDA74GP-4" value="" style="points=[[0.25,0,0],[0.5,0,0],[0.75,0,0],[1,0.25,0],[1,0.5,0],[1,0.75,0],[0.75,1,0],[0.5,1,0],[0.25,1,0],[0,0.75,0],[0,0.5,0],[0,0.25,0]];shape=mxgraph.bpmn.task;whiteSpace=wrap;rectStyle=rounded;size=10;html=1;container=0;expand=0;collapsible=0;taskMarker=abstract;" parent="1" vertex="1">
          <mxGeometry x="-270" y="122.80000000000001" width="280" height="130" as="geometry" />
        </mxCell>
        <mxCell id="sDgR5sVbnxLiPeDA74GP-6" style="edgeStyle=orthogonalEdgeStyle;rounded=0;orthogonalLoop=1;jettySize=auto;html=1;exitX=1;exitY=0.5;exitDx=0;exitDy=0;exitPerimeter=0;entryX=0;entryY=0.5;entryDx=0;entryDy=0;entryPerimeter=0;" parent="1" source="sDgR5sVbnxLiPeDA74GP-1" target="sDgR5sVbnxLiPeDA74GP-4" edge="1">
          <mxGeometry relative="1" as="geometry" />
        </mxCell>
        <mxCell id="sDgR5sVbnxLiPeDA74GP-1" value="Campagne de&lt;br&gt;prévention démarrée" style="points=[[0.145,0.145,0],[0.5,0,0],[0.855,0.145,0],[1,0.5,0],[0.855,0.855,0],[0.5,1,0],[0.145,0.855,0],[0,0.5,0]];shape=mxgraph.bpmn.event;html=1;verticalLabelPosition=bottom;labelBackgroundColor=#ffffff;verticalAlign=top;align=center;perimeter=ellipsePerimeter;outlineConnect=0;aspect=fixed;outline=standard;symbol=general;" parent="1" vertex="1">
          <mxGeometry x="-360" y="162.8" width="50" height="50" as="geometry" />
        </mxCell>
        <mxCell id="sDgR5sVbnxLiPeDA74GP-2" value="" style="points=[[0.145,0.145,0],[0.5,0,0],[0.855,0.145,0],[1,0.5,0],[0.855,0.855,0],[0.5,1,0],[0.145,0.855,0],[0,0.5,0]];shape=mxgraph.bpmn.event;html=1;verticalLabelPosition=bottom;labelBackgroundColor=#ffffff;verticalAlign=top;align=center;perimeter=ellipsePerimeter;outlineConnect=0;aspect=fixed;outline=end;symbol=terminate2;" parent="1" vertex="1">
          <mxGeometry x="60" y="162.8" width="50" height="50" as="geometry" />
        </mxCell>
        <mxCell id="sDgR5sVbnxLiPeDA74GP-7" style="edgeStyle=orthogonalEdgeStyle;rounded=0;orthogonalLoop=1;jettySize=auto;html=1;exitX=1;exitY=0.5;exitDx=0;exitDy=0;exitPerimeter=0;entryX=0;entryY=0.5;entryDx=0;entryDy=0;entryPerimeter=0;" parent="1" source="sDgR5sVbnxLiPeDA74GP-4" target="sDgR5sVbnxLiPeDA74GP-2" edge="1">
          <mxGeometry relative="1" as="geometry" />
        </mxCell>
        <mxCell id="sDgR5sVbnxLiPeDA74GP-5" value="&lt;div&gt;Prévention&lt;/div&gt;" style="text;html=1;strokeColor=none;fillColor=none;align=center;verticalAlign=middle;whiteSpace=wrap;rounded=0;" parent="1" vertex="1">
          <mxGeometry x="-174.21052631578948" y="116.99999999999999" width="88.42105263157895" height="31.200000000000003" as="geometry" />
        </mxCell>
        <mxCell id="sDgR5sVbnxLiPeDA74GP-42" value="" style="points=[[0.145,0.145,0],[0.5,0,0],[0.855,0.145,0],[1,0.5,0],[0.855,0.855,0],[0.5,1,0],[0.145,0.855,0],[0,0.5,0]];shape=mxgraph.bpmn.event;html=1;verticalLabelPosition=bottom;labelBackgroundColor=#ffffff;verticalAlign=top;align=center;perimeter=ellipsePerimeter;outlineConnect=0;aspect=fixed;outline=end;symbol=terminate2;" parent="1" vertex="1">
          <mxGeometry x="-65" y="162.8" width="50" height="50" as="geometry" />
        </mxCell>
        <mxCell id="sDgR5sVbnxLiPeDA74GP-43" value="" style="points=[[0.145,0.145,0],[0.5,0,0],[0.855,0.145,0],[1,0.5,0],[0.855,0.855,0],[0.5,1,0],[0.145,0.855,0],[0,0.5,0]];shape=mxgraph.bpmn.event;html=1;verticalLabelPosition=bottom;labelBackgroundColor=#ffffff;verticalAlign=top;align=center;perimeter=ellipsePerimeter;outlineConnect=0;aspect=fixed;outline=standard;symbol=general;" parent="1" vertex="1">
          <mxGeometry x="-245" y="162.8" width="50" height="50" as="geometry" />
        </mxCell>
        <mxCell id="sDgR5sVbnxLiPeDA74GP-45" style="edgeStyle=orthogonalEdgeStyle;rounded=0;orthogonalLoop=1;jettySize=auto;html=1;exitX=1;exitY=0.5;exitDx=0;exitDy=0;exitPerimeter=0;entryX=0;entryY=0.5;entryDx=0;entryDy=0;entryPerimeter=0;" parent="1" source="sDgR5sVbnxLiPeDA74GP-3" target="sDgR5sVbnxLiPeDA74GP-42" edge="1">
          <mxGeometry relative="1" as="geometry" />
        </mxCell>
        <mxCell id="sDgR5sVbnxLiPeDA74GP-3" value="Education, d&#39;entraînement et sensibilisation à la sécurité" style="points=[[0.25,0,0],[0.5,0,0],[0.75,0,0],[1,0.25,0],[1,0.5,0],[1,0.75,0],[0.75,1,0],[0.5,1,0],[0.25,1,0],[0,0.75,0],[0,0.5,0],[0,0.25,0]];shape=mxgraph.bpmn.task;whiteSpace=wrap;rectStyle=rounded;size=10;html=1;container=0;expand=0;collapsible=0;taskMarker=abstract;" parent="1" vertex="1">
          <mxGeometry x="-175" y="146.20000000000002" width="90" height="83.2" as="geometry" />
        </mxCell>
        <mxCell id="sDgR5sVbnxLiPeDA74GP-44" style="edgeStyle=orthogonalEdgeStyle;rounded=0;orthogonalLoop=1;jettySize=auto;html=1;exitX=1;exitY=0.5;exitDx=0;exitDy=0;exitPerimeter=0;entryX=0;entryY=0.5;entryDx=0;entryDy=0;entryPerimeter=0;" parent="1" source="sDgR5sVbnxLiPeDA74GP-43" target="sDgR5sVbnxLiPeDA74GP-3" edge="1">
          <mxGeometry relative="1" as="geometry" />
        </mxCell>
      </root>
    </mxGraphModel>
  </diagram>
</mxfile>
